<svg xmlns="http://www.w3.org/2000/svg" xmlns:xlink="http://www.w3.org/1999/xlink" width="500" zoomAndPan="magnify" viewBox="0 0 375 374.999991" height="500" preserveAspectRatio="xMidYMid meet" version="1.2"><defs><clipPath id="6de08db4fc"><path d="M 66.082031 188.335938 L 180.832031 188.335938 L 180.832031 303 L 66.082031 303 Z M 66.082031 188.335938 "/></clipPath></defs><g id="29d786cebb"><g style="fill:#8c52ff;fill-opacity:1;"><g transform="translate(19.072734, 356.651991)"><path style="stroke:none" d="M 78.671875 -54.578125 C 78.671875 -47.035156 80.0625 -39.90625 82.84375 -33.1875 C 85.632812 -26.46875 89.488281 -20.648438 94.40625 -15.734375 C 99.320312 -10.816406 105.054688 -6.960938 111.609375 -4.171875 C 118.171875 -1.390625 125.222656 0 132.765625 0 L 12.296875 0 C 19.503906 -0.976562 26.46875 -3.269531 33.1875 -6.875 C 39.90625 -10.488281 46.210938 -15 52.109375 -20.40625 C 58.015625 -25.8125 63.257812 -31.789062 67.84375 -38.34375 C 72.4375 -44.90625 76.046875 -51.628906 78.671875 -58.515625 Z M 173.078125 0 C 179.960938 0 185.863281 -2.863281 190.78125 -8.59375 C 195.695312 -14.332031 198.15625 -20.8125 198.15625 -28.03125 C 198.15625 -29.34375 198.15625 -30.648438 198.15625 -31.953125 C 198.15625 -33.265625 197.828125 -34.578125 197.171875 -35.890625 L 182.921875 -77.203125 L 181.9375 -80.15625 L 147.03125 -180.953125 C 144.726562 -186.523438 140.628906 -189.3125 134.734375 -189.3125 C 129.160156 -189.3125 125.226562 -186.523438 122.9375 -180.953125 L 181.9375 -344.203125 L 236.515625 -187.34375 C 238.804688 -180.789062 241.425781 -173.003906 244.375 -163.984375 C 247.332031 -154.972656 249.957031 -147.1875 252.25 -140.625 L 292.578125 -25.5625 C 294.867188 -19.007812 298.878906 -13.109375 304.609375 -7.859375 C 310.347656 -2.617188 316.988281 0 324.53125 0 Z M 173.078125 0 "/></g></g><g clip-rule="nonzero" clip-path="url(#6de08db4fc)"><path style=" stroke:none;fill-rule:nonzero;fill:#6b2de6;fill-opacity:1;" d="M 123.269531 188.335938 C 117.695312 235.433594 113.175781 239.953125 66.082031 245.523438 C 66.179688 245.535156 66.277344 245.546875 66.375 245.558594 L 66.375 245.5625 L 66.375 245.558594 C 113.195312 251.117188 117.707031 255.714844 123.269531 302.710938 C 128.84375 255.617188 133.359375 251.097656 180.457031 245.523438 C 133.359375 239.953125 128.84375 235.433594 123.269531 188.335938 Z M 123.269531 188.335938 "/></g></g></svg>